<svg width="44" height="15" viewBox="0 0 44 15" fill="none" xmlns="http://www.w3.org/2000/svg">
<path d="M1.96971 8.27294L2.24721 4.19161L5.65871 7.2703L1.96971 8.27294Z" fill="#0D3C29"/>
<path d="M5.39781 11.2225L5.67531 7.1412L9.08681 10.2199L5.39781 11.2225Z" fill="#069559"/>
<path d="M4.65039 4.59852L8.31128 3.48309L6.78814 7.98382L4.65039 4.59852Z" fill="#0F886F" fill-opacity="0.51"/>
<path d="M7.47498 7.14593L10.1905 6.4164L9.11919 9.58208L7.47498 7.14593Z" fill="#0F886F"/>
<path d="M1.98987 9.35821L4.70542 8.62868L3.63409 11.7944L1.98987 9.35821Z" fill="#0C6D0A"/>
<path d="M13.3047 11.5859C13.3359 11.4844 13.3633 11.3125 13.3867 11.0703C13.418 10.8359 13.4414 10.5977 13.457 10.3555C13.4805 10.0742 13.5 9.76953 13.5156 9.44141C13.5391 9.19922 13.5586 8.89453 13.5742 8.52734C13.5898 8.16016 13.6016 7.76953 13.6094 7.35547C13.6172 6.94141 13.6211 6.52344 13.6211 6.10156C13.6211 5.67188 13.6172 5.27344 13.6094 4.90625C13.6016 4.53906 13.5859 4.22266 13.5625 3.95703C13.5469 3.69141 13.5234 3.51172 13.4922 3.41797C13.6406 3.33203 13.7734 3.26953 13.8906 3.23047C14.0078 3.19141 14.1094 3.16406 14.1953 3.14844C14.2891 3.125 14.375 3.11719 14.4531 3.125C14.5156 3.13281 14.5781 3.14453 14.6406 3.16016C14.6953 3.17578 14.7461 3.19922 14.793 3.23047C14.8398 3.25391 14.875 3.28906 14.8984 3.33594C14.8828 3.82812 14.8633 4.32422 14.8398 4.82422C14.8242 5.31641 14.8047 5.76953 14.7812 6.18359C14.75 6.66797 14.7188 7.13281 14.6875 7.57812C14.6641 8.04688 14.6406 8.45312 14.6172 8.79688C14.6016 9.13281 14.5859 9.42969 14.5703 9.6875C14.5547 9.9375 14.543 10.1641 14.5352 10.3672C14.5273 10.5625 14.5234 10.7578 14.5234 10.9531C14.7109 10.9141 14.9336 10.8711 15.1914 10.8242C15.4492 10.7695 15.7422 10.7148 16.0703 10.6602C16.3828 10.6133 16.6445 10.6016 16.8555 10.625C17.0664 10.6406 17.2344 10.6875 17.3594 10.7656C17.4844 10.8359 17.5703 10.9258 17.6172 11.0352C17.6641 11.1523 17.6836 11.2812 17.6758 11.4219C17.6602 11.5781 17.6484 11.6992 17.6406 11.7852C17.6328 11.8711 17.6289 11.9375 17.6289 11.9844C17.543 11.9297 17.4258 11.8906 17.2773 11.8672C17.1289 11.8438 16.9805 11.8242 16.832 11.8086C16.6602 11.793 16.4805 11.7891 16.293 11.7969C16.0898 11.8047 15.8672 11.8203 15.625 11.8438C15.4219 11.8594 15.1836 11.8828 14.9102 11.9141C14.6367 11.9453 14.3516 11.9922 14.0547 12.0547C13.8438 11.9062 13.668 11.7891 13.5273 11.7031C13.4414 11.6562 13.3672 11.6172 13.3047 11.5859ZM20.9922 8.98438C20.9766 9.28906 20.9219 9.57031 20.8281 9.82812C20.7422 10.0859 20.6211 10.3125 20.4648 10.5078C20.3086 10.6953 20.1211 10.8438 19.9023 10.9531C19.6914 11.0625 19.457 11.1211 19.1992 11.1289C18.9727 11.1367 18.7578 11.082 18.5547 10.9648C18.3594 10.8477 18.1875 10.6836 18.0391 10.4727C17.8906 10.2617 17.7773 10.0117 17.6992 9.72266C17.6289 9.42578 17.6094 9.10547 17.6406 8.76172C17.6641 8.36328 17.7383 8.02344 17.8633 7.74219C17.9883 7.45312 18.1211 7.21484 18.2617 7.02734C18.4023 6.83984 18.5312 6.70312 18.6484 6.61719C18.7734 6.52344 18.8516 6.46875 18.8828 6.45312C18.9375 6.42969 18.9883 6.42578 19.0352 6.44141C19.082 6.44922 19.1328 6.46094 19.1875 6.47656C19.2031 6.48438 19.2188 6.50391 19.2344 6.53516C19.2656 6.58984 19.2852 6.69141 19.293 6.83984C19.332 6.75391 19.3828 6.68359 19.4453 6.62891C19.5078 6.57422 19.5703 6.53516 19.6328 6.51172C19.7109 6.48047 19.7891 6.46094 19.8672 6.45312C19.9219 6.44531 20.0156 6.48828 20.1484 6.58203C20.2891 6.67578 20.4219 6.82422 20.5469 7.02734C20.6797 7.23047 20.793 7.49609 20.8867 7.82422C20.9805 8.14453 21.0156 8.53125 20.9922 8.98438ZM20.1953 8.84375C20.2031 8.65625 20.1953 8.46875 20.1719 8.28125C20.1562 8.08594 20.125 7.91016 20.0781 7.75391C20.0391 7.58984 19.9883 7.46094 19.9258 7.36719C19.8633 7.26562 19.8008 7.21484 19.7383 7.21484C19.668 7.23047 19.5898 7.26562 19.5039 7.32031C19.4336 7.36719 19.3555 7.44141 19.2695 7.54297C19.1836 7.64453 19.1016 7.78906 19.0234 7.97656C19.0156 7.95312 19.0078 7.91016 19 7.84766C18.9922 7.79297 18.9844 7.72266 18.9766 7.63672C18.9766 7.54297 18.9844 7.41797 19 7.26172C18.8906 7.39453 18.8047 7.55078 18.7422 7.73047C18.6875 7.91016 18.6445 8.08203 18.6133 8.24609C18.582 8.44141 18.5586 8.63672 18.543 8.83203C18.5352 9.04297 18.543 9.25 18.5664 9.45312C18.5977 9.65625 18.6445 9.83594 18.707 9.99219C18.7773 10.1484 18.8594 10.2734 18.9531 10.3672C19.0469 10.4609 19.1602 10.5039 19.293 10.4961C19.4258 10.4883 19.543 10.4336 19.6445 10.332C19.7461 10.2305 19.8359 10.1016 19.9141 9.94531C19.9922 9.78906 20.0547 9.61328 20.1016 9.41797C20.1484 9.22266 20.1797 9.03125 20.1953 8.84375ZM24.8008 7.40234C24.8008 7.51172 24.7695 7.625 24.707 7.74219C24.6523 7.85156 24.582 7.95703 24.4961 8.05859C24.4102 8.16016 24.3125 8.25 24.2031 8.32812C24.1016 8.39844 24.0039 8.44141 23.9102 8.45703C23.9727 8.21484 23.9922 8.02734 23.9688 7.89453C23.9453 7.76172 23.9062 7.66406 23.8516 7.60156C23.7891 7.53125 23.7109 7.49219 23.6172 7.48438C23.4766 7.48438 23.3398 7.56641 23.207 7.73047C23.082 7.88672 22.9727 8.08203 22.8789 8.31641C22.7852 8.54297 22.7109 8.78906 22.6562 9.05469C22.6016 9.3125 22.5742 9.54688 22.5742 9.75781C22.5664 9.90625 22.5703 10.0508 22.5859 10.1914C22.5938 10.3086 22.6055 10.4297 22.6211 10.5547C22.6445 10.6797 22.6758 10.7773 22.7148 10.8477C22.668 10.8867 22.5898 10.9336 22.4805 10.9883C22.3789 11.043 22.2695 11.0781 22.1523 11.0938C22.043 11.1094 21.9414 11.0898 21.8477 11.0352C21.7617 10.9805 21.7148 10.8633 21.707 10.6836C21.6914 10.5117 21.6797 10.3203 21.6719 10.1094C21.6719 9.89062 21.6719 9.67578 21.6719 9.46484C21.6797 9.24609 21.6875 9.03125 21.6953 8.82031C21.7031 8.60938 21.7148 8.41406 21.7305 8.23438C21.7461 7.89062 21.7539 7.625 21.7539 7.4375C21.7539 7.25 21.75 7.07031 21.7422 6.89844C21.7422 6.86719 21.793 6.82422 21.8945 6.76953C22.0039 6.70703 22.1211 6.65234 22.2461 6.60547C22.3789 6.55859 22.5 6.53125 22.6094 6.52344C22.7188 6.51562 22.7734 6.53906 22.7734 6.59375C22.7734 6.67969 22.7617 6.85156 22.7383 7.10938C22.7227 7.35938 22.6992 7.62109 22.668 7.89453C22.7227 7.74609 22.793 7.58594 22.8789 7.41406C22.9727 7.24219 23.0781 7.08203 23.1953 6.93359C23.3125 6.78516 23.4453 6.66406 23.5938 6.57031C23.7422 6.46875 23.9062 6.41797 24.0859 6.41797C24.2266 6.41797 24.3398 6.46094 24.4258 6.54688C24.5195 6.63281 24.5938 6.73047 24.6484 6.83984C24.7031 6.94922 24.7422 7.05859 24.7656 7.16797C24.7891 7.27734 24.8008 7.35547 24.8008 7.40234ZM26.7461 11.1289C26.1992 11.1289 25.7773 10.9453 25.4805 10.5781C25.1836 10.2109 25.0352 9.73047 25.0352 9.13672C25.0352 8.72266 25.0938 8.33594 25.2109 7.97656C25.3359 7.60938 25.5 7.29297 25.7031 7.02734C25.9062 6.76172 26.1406 6.55469 26.4062 6.40625C26.6797 6.25 26.9648 6.17188 27.2617 6.17188C27.5508 6.17188 27.7969 6.27734 28 6.48828C28.2031 6.69141 28.3047 6.98438 28.3047 7.36719C28.3047 7.61719 28.25 7.86719 28.1406 8.11719C28.0312 8.35938 27.8867 8.57812 27.707 8.77344C27.5352 8.96094 27.3438 9.11328 27.1328 9.23047C26.9219 9.34766 26.7188 9.40625 26.5234 9.40625C26.3984 9.40625 26.293 9.39062 26.207 9.35938C26.1211 9.32812 26.043 9.28125 25.9727 9.21875C25.9961 9.66406 26.0938 9.97656 26.2656 10.1562C26.4375 10.3281 26.6602 10.4141 26.9336 10.4141C27.1211 10.4141 27.2852 10.375 27.4258 10.2969C27.5742 10.2188 27.6992 10.1289 27.8008 10.0273C27.9023 9.92578 27.9844 9.82422 28.0469 9.72266C28.1094 9.61328 28.1523 9.53125 28.1758 9.47656C28.1992 9.42969 28.2383 9.40625 28.293 9.40625C28.3555 9.40625 28.3867 9.45312 28.3867 9.54688C28.3867 9.63281 28.3555 9.76562 28.293 9.94531C28.2383 10.1172 28.1445 10.293 28.0117 10.4727C27.8789 10.6445 27.707 10.7969 27.4961 10.9297C27.293 11.0625 27.043 11.1289 26.7461 11.1289ZM27.2852 6.67578C27.2383 6.67578 27.1484 6.72656 27.0156 6.82812C26.8906 6.92188 26.7539 7.0625 26.6055 7.25C26.4648 7.4375 26.332 7.66406 26.207 7.92969C26.0898 8.1875 26.0156 8.48047 25.9844 8.80859C26.4531 8.69922 26.8242 8.52734 27.0977 8.29297C27.3711 8.05859 27.5078 7.71484 27.5078 7.26172C27.5078 7.03516 27.4805 6.88281 27.4258 6.80469C27.3711 6.71875 27.3242 6.67578 27.2852 6.67578ZM31.6562 7.34375C31.5938 7.34375 31.5234 7.37891 31.4453 7.44922C31.375 7.51172 31.3047 7.60156 31.2344 7.71875C31.1641 7.82812 31.0938 7.95312 31.0234 8.09375C30.9531 8.22656 30.8906 8.36328 30.8359 8.50391C30.7031 8.83203 30.5742 9.16797 30.4492 9.51172C30.3242 9.85547 30.25 10.1523 30.2266 10.4023C30.2188 10.4258 30.2148 10.4492 30.2148 10.4727C30.2148 10.4883 30.2148 10.5039 30.2148 10.5195C30.207 10.5352 30.2031 10.5586 30.2031 10.5898C30.1875 10.6992 30.1641 10.7891 30.1328 10.8594C30.1094 10.9219 30.0547 10.9648 29.9688 10.9883C29.875 11.0039 29.7812 11.0156 29.6875 11.0234C29.5938 11.0312 29.5039 11.0234 29.418 11C29.3633 10.9844 29.3203 10.957 29.2891 10.918C29.2656 10.8711 29.2461 10.8203 29.2305 10.7656C29.2227 10.7031 29.2148 10.6445 29.207 10.5898C29.207 10.5352 29.207 10.4883 29.207 10.4492C29.207 10.4023 29.2109 10.2578 29.2188 10.0156C29.2266 9.76562 29.2344 9.48438 29.2422 9.17188C29.25 8.85938 29.2539 8.55469 29.2539 8.25781C29.2539 7.95312 29.25 7.72266 29.2422 7.56641C29.2266 7.45703 29.2109 7.35547 29.1953 7.26172C29.1797 7.17578 29.1602 7.08984 29.1367 7.00391C29.1211 6.91797 29.0938 6.84375 29.0547 6.78125C29.1406 6.73438 29.2266 6.69531 29.3125 6.66406C29.3984 6.63281 29.4766 6.60938 29.5469 6.59375C29.6328 6.57031 29.7109 6.55469 29.7812 6.54688C29.9688 6.53125 30.1133 6.53125 30.2148 6.54688C30.3242 6.5625 30.3789 6.64453 30.3789 6.79297C30.3789 6.92578 30.3672 7.13281 30.3438 7.41406C30.3281 7.6875 30.3086 8.07031 30.2852 8.5625C30.3711 8.36719 30.4727 8.14844 30.5898 7.90625C30.707 7.65625 30.832 7.42578 30.9648 7.21484C31.0977 6.99609 31.2344 6.81641 31.375 6.67578C31.5156 6.52734 31.6484 6.45312 31.7734 6.45312C31.8594 6.45312 31.957 6.47266 32.0664 6.51172C32.1836 6.54297 32.293 6.58984 32.3945 6.65234C32.4961 6.70703 32.5859 6.76953 32.6641 6.83984C32.75 6.91016 32.8086 6.98047 32.8398 7.05078C32.8711 7.12891 32.8906 7.25 32.8984 7.41406C32.9062 7.57812 32.9062 7.76172 32.8984 7.96484C32.9609 7.81641 33.0312 7.67188 33.1094 7.53125C33.1875 7.39062 33.2656 7.26172 33.3438 7.14453C33.4297 7.01953 33.5156 6.91406 33.6016 6.82812C33.6875 6.74219 33.7656 6.68359 33.8359 6.65234C33.9297 6.61328 34.043 6.60547 34.1758 6.62891C34.3086 6.65234 34.4375 6.69531 34.5625 6.75781C34.6953 6.8125 34.8086 6.87891 34.9023 6.95703C35.0039 7.03516 35.0664 7.10938 35.0898 7.17969C35.1133 7.25781 35.1328 7.37891 35.1484 7.54297C35.1641 7.70703 35.1758 7.88672 35.1836 8.08203C35.1914 8.27734 35.1953 8.48047 35.1953 8.69141C35.1953 8.89453 35.1914 9.07422 35.1836 9.23047C35.168 9.68359 35.1719 10.043 35.1953 10.3086C35.2188 10.5664 35.3125 10.7578 35.4766 10.8828C35.3672 10.9531 35.2656 11.0039 35.1719 11.0352C35.0781 11.0742 34.9961 11.1016 34.9258 11.1172C34.8398 11.1406 34.7656 11.1523 34.7031 11.1523C34.6172 11.1523 34.5469 11.1289 34.4922 11.082C34.4375 11.043 34.3945 10.9883 34.3633 10.918C34.332 10.8477 34.3125 10.7695 34.3047 10.6836C34.2969 10.5977 34.293 10.5117 34.293 10.4258C34.293 10.3477 34.2969 10.2188 34.3047 10.0391C34.3203 9.85156 34.332 9.64062 34.3398 9.40625C34.3477 9.17188 34.3477 8.93359 34.3398 8.69141C34.332 8.44141 34.3125 8.21484 34.2812 8.01172C34.2578 7.80078 34.2148 7.62891 34.1523 7.49609C34.0898 7.36328 34.0039 7.29688 33.8945 7.29688C33.8008 7.29688 33.7109 7.35547 33.625 7.47266C33.5391 7.58203 33.457 7.73047 33.3789 7.91797C33.3008 8.09766 33.2305 8.30078 33.168 8.52734C33.1133 8.74609 33.0625 8.96484 33.0156 9.18359C32.9688 9.40234 32.9336 9.60547 32.9102 9.79297C32.8867 9.97266 32.875 10.1172 32.875 10.2266L32.8633 10.1211C32.8633 10.2695 32.8633 10.4062 32.8633 10.5312C32.8711 10.6562 32.8789 10.7812 32.8867 10.9062C32.8945 10.9531 32.8516 10.9922 32.7578 11.0234C32.6641 11.0625 32.5586 11.0781 32.4414 11.0703C32.332 11.0703 32.2305 11.0469 32.1367 11C32.043 10.9531 31.9961 10.875 31.9961 10.7656C31.9961 10.6875 31.9961 10.5703 31.9961 10.4141C31.9961 10.2578 31.9922 10.082 31.9844 9.88672C31.9844 9.69141 31.9805 9.48828 31.9727 9.27734C31.9727 9.05859 31.9688 8.85156 31.9609 8.65625C31.9609 8.50781 31.957 8.35547 31.9492 8.19922C31.9492 8.04297 31.9414 7.90234 31.9258 7.77734C31.9102 7.64453 31.8789 7.53906 31.832 7.46094C31.793 7.38281 31.7344 7.34375 31.6562 7.34375ZM39.25 4.27344C39.1406 4.29688 39.0352 4.32422 38.9336 4.35547C38.8477 4.38672 38.75 4.42188 38.6406 4.46094C38.5391 4.49219 38.4414 4.53125 38.3477 4.57812C38.3164 4.46094 38.2852 4.33203 38.2539 4.19141C38.2305 4.05078 38.2266 3.91797 38.2422 3.79297C38.2578 3.66016 38.3008 3.54688 38.3711 3.45312C38.4492 3.35156 38.5781 3.29297 38.7578 3.27734C38.9297 3.25391 39.1289 3.23828 39.3555 3.23047C39.582 3.22266 39.8164 3.21875 40.0586 3.21875C40.3086 3.21875 40.5625 3.22656 40.8203 3.24219C41.0781 3.25 41.332 3.26953 41.582 3.30078C41.5977 3.42578 41.6094 3.53516 41.6172 3.62891C41.625 3.71484 41.6289 3.78906 41.6289 3.85156V4.03906C41.6289 4.08594 41.6211 4.125 41.6055 4.15625C41.5742 4.23438 41.5195 4.28516 41.4414 4.30859C41.3555 4.28516 41.2539 4.26953 41.1367 4.26172C41.0273 4.24609 40.918 4.23047 40.8086 4.21484C40.6836 4.19922 40.5547 4.1875 40.4219 4.17969C40.4375 4.45312 40.4492 4.85156 40.457 5.375C40.4727 5.89062 40.4727 6.57031 40.457 7.41406C40.4414 8.27344 40.4258 8.97656 40.4102 9.52344C40.4023 10.0625 40.3945 10.4805 40.3867 10.7773C40.6836 10.8008 40.9023 10.8516 41.043 10.9297C41.1914 11 41.2891 11.082 41.3359 11.1758C41.3906 11.2773 41.4102 11.3867 41.3945 11.5039C41.3867 11.6211 41.3789 11.7344 41.3711 11.8438C41.2383 11.8125 41.0859 11.7891 40.9141 11.7734C40.75 11.7656 40.5938 11.7617 40.4453 11.7617C40.2734 11.7617 40.0977 11.7695 39.918 11.7852C39.7148 11.8008 39.5195 11.8242 39.332 11.8555C39.1758 11.8867 39.0195 11.9258 38.8633 11.9727C38.707 12.0195 38.5898 12.0859 38.5117 12.1719C38.4492 12.0547 38.4023 11.9297 38.3711 11.7969C38.3398 11.6875 38.3164 11.5586 38.3008 11.4102C38.2852 11.2617 38.2891 11.1094 38.3125 10.9531C38.3984 10.9219 38.4961 10.8984 38.6055 10.8828C38.7148 10.8594 38.8164 10.8398 38.9102 10.8242C39.0195 10.8086 39.1328 10.7969 39.25 10.7891C39.2656 10.5391 39.2852 10.1914 39.3086 9.74609C39.332 9.29297 39.3516 8.6875 39.3672 7.92969C39.3828 6.97656 39.375 6.20312 39.3438 5.60938C39.3125 5.00781 39.2812 4.5625 39.25 4.27344Z" fill="black"/>
<path d="M13.3047 11.5859C13.3359 11.4844 13.3633 11.3125 13.3867 11.0703C13.418 10.8359 13.4414 10.5977 13.457 10.3555C13.4805 10.0742 13.5 9.76953 13.5156 9.44141C13.5391 9.19922 13.5586 8.89453 13.5742 8.52734C13.5898 8.16016 13.6016 7.76953 13.6094 7.35547C13.6172 6.94141 13.6211 6.52344 13.6211 6.10156C13.6211 5.67188 13.6172 5.27344 13.6094 4.90625C13.6016 4.53906 13.5859 4.22266 13.5625 3.95703C13.5469 3.69141 13.5234 3.51172 13.4922 3.41797C13.6406 3.33203 13.7734 3.26953 13.8906 3.23047C14.0078 3.19141 14.1094 3.16406 14.1953 3.14844C14.2891 3.125 14.375 3.11719 14.4531 3.125C14.5156 3.13281 14.5781 3.14453 14.6406 3.16016C14.6953 3.17578 14.7461 3.19922 14.793 3.23047C14.8398 3.25391 14.875 3.28906 14.8984 3.33594C14.8828 3.82812 14.8633 4.32422 14.8398 4.82422C14.8242 5.31641 14.8047 5.76953 14.7812 6.18359C14.75 6.66797 14.7188 7.13281 14.6875 7.57812C14.6641 8.04688 14.6406 8.45312 14.6172 8.79688C14.6016 9.13281 14.5859 9.42969 14.5703 9.6875C14.5547 9.9375 14.543 10.1641 14.5352 10.3672C14.5273 10.5625 14.5234 10.7578 14.5234 10.9531C14.7109 10.9141 14.9336 10.8711 15.1914 10.8242C15.4492 10.7695 15.7422 10.7148 16.0703 10.6602C16.3828 10.6133 16.6445 10.6016 16.8555 10.625C17.0664 10.6406 17.2344 10.6875 17.3594 10.7656C17.4844 10.8359 17.5703 10.9258 17.6172 11.0352C17.6641 11.1523 17.6836 11.2812 17.6758 11.4219C17.6602 11.5781 17.6484 11.6992 17.6406 11.7852C17.6328 11.8711 17.6289 11.9375 17.6289 11.9844C17.543 11.9297 17.4258 11.8906 17.2773 11.8672C17.1289 11.8438 16.9805 11.8242 16.832 11.8086C16.6602 11.793 16.4805 11.7891 16.293 11.7969C16.0898 11.8047 15.8672 11.8203 15.625 11.8438C15.4219 11.8594 15.1836 11.8828 14.9102 11.9141C14.6367 11.9453 14.3516 11.9922 14.0547 12.0547C13.8438 11.9062 13.668 11.7891 13.5273 11.7031C13.4414 11.6562 13.3672 11.6172 13.3047 11.5859ZM20.9922 8.98438C20.9766 9.28906 20.9219 9.57031 20.8281 9.82812C20.7422 10.0859 20.6211 10.3125 20.4648 10.5078C20.3086 10.6953 20.1211 10.8438 19.9023 10.9531C19.6914 11.0625 19.457 11.1211 19.1992 11.1289C18.9727 11.1367 18.7578 11.082 18.5547 10.9648C18.3594 10.8477 18.1875 10.6836 18.0391 10.4727C17.8906 10.2617 17.7773 10.0117 17.6992 9.72266C17.6289 9.42578 17.6094 9.10547 17.6406 8.76172C17.6641 8.36328 17.7383 8.02344 17.8633 7.74219C17.9883 7.45312 18.1211 7.21484 18.2617 7.02734C18.4023 6.83984 18.5312 6.70312 18.6484 6.61719C18.7734 6.52344 18.8516 6.46875 18.8828 6.45312C18.9375 6.42969 18.9883 6.42578 19.0352 6.44141C19.082 6.44922 19.1328 6.46094 19.1875 6.47656C19.2031 6.48438 19.2188 6.50391 19.2344 6.53516C19.2656 6.58984 19.2852 6.69141 19.293 6.83984C19.332 6.75391 19.3828 6.68359 19.4453 6.62891C19.5078 6.57422 19.5703 6.53516 19.6328 6.51172C19.7109 6.48047 19.7891 6.46094 19.8672 6.45312C19.9219 6.44531 20.0156 6.48828 20.1484 6.58203C20.2891 6.67578 20.4219 6.82422 20.5469 7.02734C20.6797 7.23047 20.793 7.49609 20.8867 7.82422C20.9805 8.14453 21.0156 8.53125 20.9922 8.98438ZM20.1953 8.84375C20.2031 8.65625 20.1953 8.46875 20.1719 8.28125C20.1562 8.08594 20.125 7.91016 20.0781 7.75391C20.0391 7.58984 19.9883 7.46094 19.9258 7.36719C19.8633 7.26562 19.8008 7.21484 19.7383 7.21484C19.668 7.23047 19.5898 7.26562 19.5039 7.32031C19.4336 7.36719 19.3555 7.44141 19.2695 7.54297C19.1836 7.64453 19.1016 7.78906 19.0234 7.97656C19.0156 7.95312 19.0078 7.91016 19 7.84766C18.9922 7.79297 18.9844 7.72266 18.9766 7.63672C18.9766 7.54297 18.9844 7.41797 19 7.26172C18.8906 7.39453 18.8047 7.55078 18.7422 7.73047C18.6875 7.91016 18.6445 8.08203 18.6133 8.24609C18.582 8.44141 18.5586 8.63672 18.543 8.83203C18.5352 9.04297 18.543 9.25 18.5664 9.45312C18.5977 9.65625 18.6445 9.83594 18.707 9.99219C18.7773 10.1484 18.8594 10.2734 18.9531 10.3672C19.0469 10.4609 19.1602 10.5039 19.293 10.4961C19.4258 10.4883 19.543 10.4336 19.6445 10.332C19.7461 10.2305 19.8359 10.1016 19.9141 9.94531C19.9922 9.78906 20.0547 9.61328 20.1016 9.41797C20.1484 9.22266 20.1797 9.03125 20.1953 8.84375ZM24.8008 7.40234C24.8008 7.51172 24.7695 7.625 24.707 7.74219C24.6523 7.85156 24.582 7.95703 24.4961 8.05859C24.4102 8.16016 24.3125 8.25 24.2031 8.32812C24.1016 8.39844 24.0039 8.44141 23.9102 8.45703C23.9727 8.21484 23.9922 8.02734 23.9688 7.89453C23.9453 7.76172 23.9062 7.66406 23.8516 7.60156C23.7891 7.53125 23.7109 7.49219 23.6172 7.48438C23.4766 7.48438 23.3398 7.56641 23.207 7.73047C23.082 7.88672 22.9727 8.08203 22.8789 8.31641C22.7852 8.54297 22.7109 8.78906 22.6562 9.05469C22.6016 9.3125 22.5742 9.54688 22.5742 9.75781C22.5664 9.90625 22.5703 10.0508 22.5859 10.1914C22.5938 10.3086 22.6055 10.4297 22.6211 10.5547C22.6445 10.6797 22.6758 10.7773 22.7148 10.8477C22.668 10.8867 22.5898 10.9336 22.4805 10.9883C22.3789 11.043 22.2695 11.0781 22.1523 11.0938C22.043 11.1094 21.9414 11.0898 21.8477 11.0352C21.7617 10.9805 21.7148 10.8633 21.707 10.6836C21.6914 10.5117 21.6797 10.3203 21.6719 10.1094C21.6719 9.89062 21.6719 9.67578 21.6719 9.46484C21.6797 9.24609 21.6875 9.03125 21.6953 8.82031C21.7031 8.60938 21.7148 8.41406 21.7305 8.23438C21.7461 7.89062 21.7539 7.625 21.7539 7.4375C21.7539 7.25 21.75 7.07031 21.7422 6.89844C21.7422 6.86719 21.793 6.82422 21.8945 6.76953C22.0039 6.70703 22.1211 6.65234 22.2461 6.60547C22.3789 6.55859 22.5 6.53125 22.6094 6.52344C22.7188 6.51562 22.7734 6.53906 22.7734 6.59375C22.7734 6.67969 22.7617 6.85156 22.7383 7.10938C22.7227 7.35938 22.6992 7.62109 22.668 7.89453C22.7227 7.74609 22.793 7.58594 22.8789 7.41406C22.9727 7.24219 23.0781 7.08203 23.1953 6.93359C23.3125 6.78516 23.4453 6.66406 23.5938 6.57031C23.7422 6.46875 23.9062 6.41797 24.0859 6.41797C24.2266 6.41797 24.3398 6.46094 24.4258 6.54688C24.5195 6.63281 24.5938 6.73047 24.6484 6.83984C24.7031 6.94922 24.7422 7.05859 24.7656 7.16797C24.7891 7.27734 24.8008 7.35547 24.8008 7.40234ZM26.7461 11.1289C26.1992 11.1289 25.7773 10.9453 25.4805 10.5781C25.1836 10.2109 25.0352 9.73047 25.0352 9.13672C25.0352 8.72266 25.0938 8.33594 25.2109 7.97656C25.3359 7.60938 25.5 7.29297 25.7031 7.02734C25.9062 6.76172 26.1406 6.55469 26.4062 6.40625C26.6797 6.25 26.9648 6.17188 27.2617 6.17188C27.5508 6.17188 27.7969 6.27734 28 6.48828C28.2031 6.69141 28.3047 6.98438 28.3047 7.36719C28.3047 7.61719 28.25 7.86719 28.1406 8.11719C28.0312 8.35938 27.8867 8.57812 27.707 8.77344C27.5352 8.96094 27.3438 9.11328 27.1328 9.23047C26.9219 9.34766 26.7188 9.40625 26.5234 9.40625C26.3984 9.40625 26.293 9.39062 26.207 9.35938C26.1211 9.32812 26.043 9.28125 25.9727 9.21875C25.9961 9.66406 26.0938 9.97656 26.2656 10.1562C26.4375 10.3281 26.6602 10.4141 26.9336 10.4141C27.1211 10.4141 27.2852 10.375 27.4258 10.2969C27.5742 10.2188 27.6992 10.1289 27.8008 10.0273C27.9023 9.92578 27.9844 9.82422 28.0469 9.72266C28.1094 9.61328 28.1523 9.53125 28.1758 9.47656C28.1992 9.42969 28.2383 9.40625 28.293 9.40625C28.3555 9.40625 28.3867 9.45312 28.3867 9.54688C28.3867 9.63281 28.3555 9.76562 28.293 9.94531C28.2383 10.1172 28.1445 10.293 28.0117 10.4727C27.8789 10.6445 27.707 10.7969 27.4961 10.9297C27.293 11.0625 27.043 11.1289 26.7461 11.1289ZM27.2852 6.67578C27.2383 6.67578 27.1484 6.72656 27.0156 6.82812C26.8906 6.92188 26.7539 7.0625 26.6055 7.25C26.4648 7.4375 26.332 7.66406 26.207 7.92969C26.0898 8.1875 26.0156 8.48047 25.9844 8.80859C26.4531 8.69922 26.8242 8.52734 27.0977 8.29297C27.3711 8.05859 27.5078 7.71484 27.5078 7.26172C27.5078 7.03516 27.4805 6.88281 27.4258 6.80469C27.3711 6.71875 27.3242 6.67578 27.2852 6.67578ZM31.6562 7.34375C31.5938 7.34375 31.5234 7.37891 31.4453 7.44922C31.375 7.51172 31.3047 7.60156 31.2344 7.71875C31.1641 7.82812 31.0938 7.95312 31.0234 8.09375C30.9531 8.22656 30.8906 8.36328 30.8359 8.50391C30.7031 8.83203 30.5742 9.16797 30.4492 9.51172C30.3242 9.85547 30.25 10.1523 30.2266 10.4023C30.2188 10.4258 30.2148 10.4492 30.2148 10.4727C30.2148 10.4883 30.2148 10.5039 30.2148 10.5195C30.207 10.5352 30.2031 10.5586 30.2031 10.5898C30.1875 10.6992 30.1641 10.7891 30.1328 10.8594C30.1094 10.9219 30.0547 10.9648 29.9688 10.9883C29.875 11.0039 29.7812 11.0156 29.6875 11.0234C29.5938 11.0312 29.5039 11.0234 29.418 11C29.3633 10.9844 29.3203 10.957 29.2891 10.918C29.2656 10.8711 29.2461 10.8203 29.2305 10.7656C29.2227 10.7031 29.2148 10.6445 29.207 10.5898C29.207 10.5352 29.207 10.4883 29.207 10.4492C29.207 10.4023 29.2109 10.2578 29.2188 10.0156C29.2266 9.76562 29.2344 9.48438 29.2422 9.17188C29.25 8.85938 29.2539 8.55469 29.2539 8.25781C29.2539 7.95312 29.25 7.72266 29.2422 7.56641C29.2266 7.45703 29.2109 7.35547 29.1953 7.26172C29.1797 7.17578 29.1602 7.08984 29.1367 7.00391C29.1211 6.91797 29.0938 6.84375 29.0547 6.78125C29.1406 6.73438 29.2266 6.69531 29.3125 6.66406C29.3984 6.63281 29.4766 6.60938 29.5469 6.59375C29.6328 6.57031 29.7109 6.55469 29.7812 6.54688C29.9688 6.53125 30.1133 6.53125 30.2148 6.54688C30.3242 6.5625 30.3789 6.64453 30.3789 6.79297C30.3789 6.92578 30.3672 7.13281 30.3438 7.41406C30.3281 7.6875 30.3086 8.07031 30.2852 8.5625C30.3711 8.36719 30.4727 8.14844 30.5898 7.90625C30.707 7.65625 30.832 7.42578 30.9648 7.21484C31.0977 6.99609 31.2344 6.81641 31.375 6.67578C31.5156 6.52734 31.6484 6.45312 31.7734 6.45312C31.8594 6.45312 31.957 6.47266 32.0664 6.51172C32.1836 6.54297 32.293 6.58984 32.3945 6.65234C32.4961 6.70703 32.5859 6.76953 32.6641 6.83984C32.75 6.91016 32.8086 6.98047 32.8398 7.05078C32.8711 7.12891 32.8906 7.25 32.8984 7.41406C32.9062 7.57812 32.9062 7.76172 32.8984 7.96484C32.9609 7.81641 33.0312 7.67188 33.1094 7.53125C33.1875 7.39062 33.2656 7.26172 33.3438 7.14453C33.4297 7.01953 33.5156 6.91406 33.6016 6.82812C33.6875 6.74219 33.7656 6.68359 33.8359 6.65234C33.9297 6.61328 34.043 6.60547 34.1758 6.62891C34.3086 6.65234 34.4375 6.69531 34.5625 6.75781C34.6953 6.8125 34.8086 6.87891 34.9023 6.95703C35.0039 7.03516 35.0664 7.10938 35.0898 7.17969C35.1133 7.25781 35.1328 7.37891 35.1484 7.54297C35.1641 7.70703 35.1758 7.88672 35.1836 8.08203C35.1914 8.27734 35.1953 8.48047 35.1953 8.69141C35.1953 8.89453 35.1914 9.07422 35.1836 9.23047C35.168 9.68359 35.1719 10.043 35.1953 10.3086C35.2188 10.5664 35.3125 10.7578 35.4766 10.8828C35.3672 10.9531 35.2656 11.0039 35.1719 11.0352C35.0781 11.0742 34.9961 11.1016 34.9258 11.1172C34.8398 11.1406 34.7656 11.1523 34.7031 11.1523C34.6172 11.1523 34.5469 11.1289 34.4922 11.082C34.4375 11.043 34.3945 10.9883 34.3633 10.918C34.332 10.8477 34.3125 10.7695 34.3047 10.6836C34.2969 10.5977 34.293 10.5117 34.293 10.4258C34.293 10.3477 34.2969 10.2188 34.3047 10.0391C34.3203 9.85156 34.332 9.64062 34.3398 9.40625C34.3477 9.17188 34.3477 8.93359 34.3398 8.69141C34.332 8.44141 34.3125 8.21484 34.2812 8.01172C34.2578 7.80078 34.2148 7.62891 34.1523 7.49609C34.0898 7.36328 34.0039 7.29688 33.8945 7.29688C33.8008 7.29688 33.7109 7.35547 33.625 7.47266C33.5391 7.58203 33.457 7.73047 33.3789 7.91797C33.3008 8.09766 33.2305 8.30078 33.168 8.52734C33.1133 8.74609 33.0625 8.96484 33.0156 9.18359C32.9688 9.40234 32.9336 9.60547 32.9102 9.79297C32.8867 9.97266 32.875 10.1172 32.875 10.2266L32.8633 10.1211C32.8633 10.2695 32.8633 10.4062 32.8633 10.5312C32.8711 10.6562 32.8789 10.7812 32.8867 10.9062C32.8945 10.9531 32.8516 10.9922 32.7578 11.0234C32.6641 11.0625 32.5586 11.0781 32.4414 11.0703C32.332 11.0703 32.2305 11.0469 32.1367 11C32.043 10.9531 31.9961 10.875 31.9961 10.7656C31.9961 10.6875 31.9961 10.5703 31.9961 10.4141C31.9961 10.2578 31.9922 10.082 31.9844 9.88672C31.9844 9.69141 31.9805 9.48828 31.9727 9.27734C31.9727 9.05859 31.9688 8.85156 31.9609 8.65625C31.9609 8.50781 31.957 8.35547 31.9492 8.19922C31.9492 8.04297 31.9414 7.90234 31.9258 7.77734C31.9102 7.64453 31.8789 7.53906 31.832 7.46094C31.793 7.38281 31.7344 7.34375 31.6562 7.34375ZM39.25 4.27344C39.1406 4.29688 39.0352 4.32422 38.9336 4.35547C38.8477 4.38672 38.75 4.42188 38.6406 4.46094C38.5391 4.49219 38.4414 4.53125 38.3477 4.57812C38.3164 4.46094 38.2852 4.33203 38.2539 4.19141C38.2305 4.05078 38.2266 3.91797 38.2422 3.79297C38.2578 3.66016 38.3008 3.54688 38.3711 3.45312C38.4492 3.35156 38.5781 3.29297 38.7578 3.27734C38.9297 3.25391 39.1289 3.23828 39.3555 3.23047C39.582 3.22266 39.8164 3.21875 40.0586 3.21875C40.3086 3.21875 40.5625 3.22656 40.8203 3.24219C41.0781 3.25 41.332 3.26953 41.582 3.30078C41.5977 3.42578 41.6094 3.53516 41.6172 3.62891C41.625 3.71484 41.6289 3.78906 41.6289 3.85156V4.03906C41.6289 4.08594 41.6211 4.125 41.6055 4.15625C41.5742 4.23438 41.5195 4.28516 41.4414 4.30859C41.3555 4.28516 41.2539 4.26953 41.1367 4.26172C41.0273 4.24609 40.918 4.23047 40.8086 4.21484C40.6836 4.19922 40.5547 4.1875 40.4219 4.17969C40.4375 4.45312 40.4492 4.85156 40.457 5.375C40.4727 5.89062 40.4727 6.57031 40.457 7.41406C40.4414 8.27344 40.4258 8.97656 40.4102 9.52344C40.4023 10.0625 40.3945 10.4805 40.3867 10.7773C40.6836 10.8008 40.9023 10.8516 41.043 10.9297C41.1914 11 41.2891 11.082 41.3359 11.1758C41.3906 11.2773 41.4102 11.3867 41.3945 11.5039C41.3867 11.6211 41.3789 11.7344 41.3711 11.8438C41.2383 11.8125 41.0859 11.7891 40.9141 11.7734C40.75 11.7656 40.5938 11.7617 40.4453 11.7617C40.2734 11.7617 40.0977 11.7695 39.918 11.7852C39.7148 11.8008 39.5195 11.8242 39.332 11.8555C39.1758 11.8867 39.0195 11.9258 38.8633 11.9727C38.707 12.0195 38.5898 12.0859 38.5117 12.1719C38.4492 12.0547 38.4023 11.9297 38.3711 11.7969C38.3398 11.6875 38.3164 11.5586 38.3008 11.4102C38.2852 11.2617 38.2891 11.1094 38.3125 10.9531C38.3984 10.9219 38.4961 10.8984 38.6055 10.8828C38.7148 10.8594 38.8164 10.8398 38.9102 10.8242C39.0195 10.8086 39.1328 10.7969 39.25 10.7891C39.2656 10.5391 39.2852 10.1914 39.3086 9.74609C39.332 9.29297 39.3516 8.6875 39.3672 7.92969C39.3828 6.97656 39.375 6.20312 39.3438 5.60938C39.3125 5.00781 39.2812 4.5625 39.25 4.27344Z" fill="url(#paint0_linear)"/>
<defs>
<linearGradient id="paint0_linear" x1="28.5" y1="0" x2="28.5" y2="15" gradientUnits="userSpaceOnUse">
<stop stop-color="#069559"/>
<stop offset="1" stop-color="white" stop-opacity="0"/>
</linearGradient>
</defs>
</svg>
